<svg xmlns="http://www.w3.org/2000/svg" xml:space="preserve" style="fill-rule:evenodd;clip-rule:evenodd;stroke-linejoin:round;stroke-miterlimit:2" viewBox="0 0 978 388"><g style="fill:#6a788a;fill-opacity:1"><path d="m142.662 103.442 3.603-9.111h10.403L151.73 80.51l6.175-15.614 17.685 46.956h-13.042l-3.022-8.41h-16.864Z" style="fill-opacity:1;fill-rule:nonzero;fill:#6a788a" transform="translate(-398.586 -488.321) scale(7.83465)"/></g><path fill="#3d8fb1" d="m131.535 109.284 18.932-46.956-12.551.001-12.951 30.344-9.21-30.344h-9.647L96.22 92.673l-6.974-13.828-6.311 19.443 6.408 10.996h12.352l8.936-27.212 8.519 27.212h12.385Z" style="fill-opacity:.91;fill-rule:nonzero" transform="translate(-398.586 -488.321) scale(7.83465)"/><g style="fill:#6a788a;fill-opacity:1"><path d="M62.789 93.166h7.731c2.342 0 4.427-.261 6.256-.784l1.999-6.159 5.588-17.216a13.684 13.684 0 0 0-1.458-1.914c-2.869-3.176-7.067-4.763-12.593-4.763H50.875v46.956h11.914v-16.12Zm10.233-20.034c1.121 1.128 1.681 2.638 1.681 4.528 0 1.906-.493 3.417-1.478 4.534-1.081 1.241-3.07 1.862-5.968 1.862h-4.468V71.441h4.501c2.701 0 4.612.563 5.732 1.691Z" style="fill-opacity:1;fill-rule:nonzero;fill:#6a788a" transform="translate(-398.586 -488.321) scale(7.83465)"/></g></svg>